<?xml version="1.0" encoding="utf-8"?>
<!-- Generator: Adobe Illustrator 21.0.0, SVG Export Plug-In . SVG Version: 6.00 Build 0)  -->
<svg version="1.1" id="Layer_1" xmlns="http://www.w3.org/2000/svg" xmlns:xlink="http://www.w3.org/1999/xlink" x="0px" y="0px"
	 viewBox="0 0 20 20" style="enable-background:new 0 0 20 20;" xml:space="preserve">
<style type="text/css">
	.st0{opacity:0.7;fill:#FFFFFF;}
	.st1{fill:#535252;}
</style>
<path class="st0" d="M11.5,20H8.5C3.8,20,0,16.2,0,11.5V8.5C0,3.8,3.8,0,8.5,0h3.1C16.2,0,20,3.8,20,8.5v3.1
	C20,16.2,16.2,20,11.5,20z"/>
<g id="Банкоматы" transform="translate(5.000000, 180.000000)">
	<path id="Fill-1" class="st1" d="M5-168.1v-0.7H2.3c0.1,0.4,0.4,0.7,0.8,0.7H5z"/>
	<path id="Fill-3" class="st1" d="M3.5-167.7c-0.4,0-0.8,0.3-0.8,0.8c0,0.4,0.3,0.8,0.8,0.8h0.7c0.2-0.6,0.4-1.1,0.8-1.6L3.5-167.7
		L3.5-167.7z"/>
	<path id="Fill-5" class="st1" d="M7.1-173.7c0-0.5,0.2-0.8,0.8-0.8c0.5,0,0.8,0.3,0.8,0.9v0.6c0,0.5-0.2,0.8-0.8,0.8
		c-0.5,0-0.8-0.3-0.8-0.9C7.1-173.2,7.1-173.7,7.1-173.7z M7.8-171.8c0.8,0,1.2-0.5,1.2-1.2v-0.6c0-0.8-0.5-1.3-1.2-1.3
		c-0.8,0-1.2,0.5-1.2,1.2v0.6C6.6-172.3,7.1-171.8,7.8-171.8L7.8-171.8z"/>
	<path id="Fill-7" class="st1" d="M4.2-173.7c0-0.5,0.2-0.8,0.8-0.8c0.5,0,0.8,0.3,0.8,0.9v0.6c0,0.5-0.3,0.8-0.8,0.8
		c-0.5,0-0.8-0.3-0.8-0.9L4.2-173.7L4.2-173.7z M5-171.8c0.8,0,1.3-0.5,1.3-1.2v-0.6c0-0.8-0.5-1.3-1.3-1.3c-0.8,0-1.2,0.5-1.2,1.2
		v0.6C3.8-172.3,4.2-171.9,5-171.8L5-171.8z"/>
	<polygon id="Fill-9" class="st1" points="2.9,-174.4 2.8,-171.9 3.3,-171.9 3.3,-175 2.9,-175 1.8,-173.9 1.9,-173.5 	"/>
	<g id="Group-13" transform="translate(0.000000, 0.216210)">
		<path id="Fill-11" class="st1" d="M11.3-170.9H7.7v-0.3c0-0.6-0.5-1-1-1c-0.6,0-1,0.5-1,1v0.3H0.3v-5.6h11.1L11.3-170.9
			L11.3-170.9L11.3-170.9z M7.6-170.1h2.9v-0.4H7.6V-170.1z M7.6-169.3h2.2v-0.4H7.6V-169.3z M5.5-170.1h-6.1v-5.6h0.4v5.2h5.7
			V-170.1z M5.5-169.3h-6.8v-5.6h0.4v5.2h6.4V-169.3z M-0.1-176.8v0.8h-0.8v0.8h-0.8v6.2h0.2h7l0,0l0,0v0.9c-0.6,1-1,2.2-1.1,3.5
			c0,0.4,0.1,0.8,0.2,1.3v1.5h4v-0.9c0-0.4,0.2-1.1,0.2-1.5l1.2-3.4c0.2-0.4,0.2-1.2,0.1-1.6l-0.2-0.6l0,0l0,0h0.8v-0.8h0.8v-6.2
			H-0.1L-0.1-176.8z"/>
	</g>
</g>
</svg>
