<?xml version="1.0" encoding="UTF-8"?>
<svg xmlns="http://www.w3.org/2000/svg" 
xmlns:xlink="http://www.w3.org/1999/xlink" 
fill-opacity="1" 
color-rendering="auto" 
color-interpolation="auto" 
text-rendering="auto" 
stroke="black" 
stroke-linecap="square" 
width="522" 
height="431" 
stroke-miterlimit="10" 
shape-rendering="auto" 
stroke-opacity="1" fill="black" 
stroke-dasharray="none" 
font-weight="normal" 
stroke-width="1" 

font-family="'Dialog'" 
font-style="normal" 
stroke-linejoin="miter" 
font-size="12px" 
stroke-dashoffset="0" 
image-rendering="auto">
  <!--Generated by ySVG 2.5-->
  <defs id="genericDefs"/>
  <g>
    <defs id="defs1">
      <linearGradient x1="124" gradientUnits="userSpaceOnUse" x2="646" y1="194" y2="625" id="linearGradient1" spreadMethod="reflect">
        <stop stop-opacity="1" stop-color="rgb(232,238,247)" offset="0%"/>
        <stop stop-opacity="1" stop-color="rgb(183,201,227)" offset="100%"/>
      </linearGradient>
      <clipPath clipPathUnits="userSpaceOnUse" id="clipPath1">
        <path d="M0 0 L522 0 L522 431 L0 431 L0 0 Z"/>
      </clipPath>
      <clipPath clipPathUnits="userSpaceOnUse" id="clipPath2">
        <path d="M124 194 L646 194 L646 625 L124 625 L124 194 Z"/>
      </clipPath>
    </defs>
    <g fill="white" text-rendering="geometricPrecision" shape-rendering="geometricPrecision" transform="translate(-124,-194)" stroke="white">
      <rect x="124" width="522" height="431" y="194" clip-path="url(#clipPath2)" stroke="none"/>
    </g>
    <g fill="url(#linearGradient1)" text-rendering="geometricPrecision" shape-rendering="geometricPrecision" transform="matrix(1,0,0,1,-124,-194)" stroke="url(#linearGradient1)">
      <path d="M124 194 L646 194 L646 625 L124 625 Z" stroke="none" clip-path="url(#clipPath2)"/>
    </g>
    <g text-rendering="geometricPrecision" stroke-miterlimit="1.45" shape-rendering="geometricPrecision" transform="matrix(1,0,0,1,-124,-194)" stroke-linecap="butt">
      <path fill="none" d="M124 194 L646 194 L646 625 L124 625 Z" clip-path="url(#clipPath2)"/>
    </g>
  </g>
</svg>
