<?xml version="1.0" encoding="UTF-8"?><svg xmlns="http://www.w3.org/2000/svg" xmlns:xlink="http://www.w3.org/1999/xlink" fill-opacity="1" color-rendering="auto" color-interpolation="auto" text-rendering="auto" stroke="black" stroke-linecap="square" width="68" stroke-miterlimit="10" shape-rendering="auto" stroke-opacity="1" fill="black" stroke-dasharray="none" font-weight="normal" stroke-width="1" height="54" font-family="'Dialog'" font-style="normal" stroke-linejoin="miter" font-size="12px" stroke-dashoffset="0" image-rendering="auto">
  <!--Generated by ySVG 2.5-->
  <defs id="genericDefs"/>
  <g>
    <g fill="white" text-rendering="geometricPrecision" shape-rendering="geometricPrecision" transform="translate(-324,-369)" stroke="white">
      <rect x="324" width="68" height="54" y="369" clip-path="url(#clipPath2)" stroke="none"/>
    </g>
    <g text-rendering="geometricPrecision" shape-rendering="geometricPrecision" transform="matrix(1,0,0,1,0.187,0.031)">
      <g clip-path="url(#clipPath3)">
        <svg xml:space="preserve" opacity="1" writing-mode="lr-tb" stop-color="rgb(0, 0, 0)" shape-rendering="auto" glyph-orientation-horizontal="0deg" color-profile="auto" lighting-color="rgb(255, 255, 255)" color="rgb(0, 0, 0)" font-weight="400" alignment-baseline="auto" font-style="normal" version="1.1" color-interpolation-filters="linearrgb" text-anchor="start" stroke-linecap="butt" color-interpolation="srgb" font-variant="normal" word-spacing="normal" fill-opacity="1" text-rendering="auto" clip-path="none" text-decoration="none" letter-spacing="normal" viewBox="-0.064 -0.075 68 46" glyph-orientation-vertical="auto" display="inline" font-size-adjust="none" overflow="visible" fill="rgb(0, 0, 0)" font-stretch="normal" stroke-dasharray="none" stroke-miterlimit="4" stop-opacity="1" color-rendering="auto" font-size="12" pointer-events="visiblepainted" mask="none" direction="ltr" baseline-shift="baseline" enable-background="new -0.064 -0.075 68 46" fill-rule="nonzero" image-rendering="auto" stroke-dashoffset="0" width="68px" marker-end="none" clip="auto" cursor="auto" stroke="none" filter="none" visibility="visible" kerning="auto" stroke-width="1" font-family="&quot;Arial&quot;,&quot;Helvetica&quot;,sans-serif" flood-opacity="1" clip-rule="nonzero" src="none" height="46px" unicode-bidi="normal" stroke-linejoin="miter" stroke-opacity="1" flood-color="rgb(0, 0, 0)" dominant-baseline="auto" marker-start="none" x="0px" marker-mid="none" y="0px">
<defs>
<clipPath clipPathUnits="userSpaceOnUse" id="clipPath1">
              <path d="M0 0 L68 0 L68 54 L0 54 L0 0 Z"/>
            </clipPath>
            <clipPath clipPathUnits="userSpaceOnUse" id="clipPath2">
              <path d="M324 369 L392 369 L392 423 L324 423 L324 369 Z"/>
            </clipPath>
            <clipPath clipPathUnits="userSpaceOnUse" id="clipPath3">
              <path d="M-0.187 -0.031 L67.813 -0.031 L67.813 53.969 L-0.187 53.969 L-0.187 -0.031 Z"/>
            </clipPath>
          </defs>
<radialGradient gradientTransform="matrix(1.15 0 0 1 -526.6598 -1982.4023)" id="svg1.SVGID_1_" r="21.6001" cx="478.8413" gradientUnits="userSpaceOnUse" cy="1991.2729">
	<stop offset="0" style="stop-color:#F2F2F2"/>
	<stop offset="1" style="stop-color:#8D8D8D"/>
</radialGradient>
<path fill="url(#svg1.SVGID_1_)" d="M10.263,1.903c0-0.987,0.807-1.794,1.794-1.794h43.279c0.986,0,1.795,0.807,1.795,1.794v26.978  c0,0.987-0.809,1.794-1.795,1.794h-43.28c-0.987,0-1.794-0.807-1.794-1.794L10.263,1.903L10.263,1.903z"/>
<path stroke-linecap="round" display="none" fill="none" stroke-linejoin="round" d="  M10.263,1.903c0-0.987,0.807-1.794,1.794-1.794h43.279c0.986,0,1.795,0.807,1.795,1.794v26.978c0,0.987-0.809,1.794-1.795,1.794  h-43.28c-0.987,0-1.794-0.807-1.794-1.794L10.263,1.903L10.263,1.903z" stroke="#3C89C9" stroke-width="0.2185" stroke-miterlimit="10"/>
<radialGradient gradientTransform="matrix(1.1935 0 0 1 -509.6731 -1982.4023)" gradientUnits="userSpaceOnUse" r="47.8462" cx="455.894" id="svg1.SVGID_2_" cy="1983.9624" fx="493.5344" fy="1977.5143">
	<stop offset="0" style="stop-color:#4D4D4D"/>
	<stop offset="1" style="stop-color:#999999"/>
</radialGradient>
<path fill="url(#svg1.SVGID_2_)" d="M11.18,2.819c0-0.987,0.807-1.794,1.794-1.794h41.649c0.986,0,1.795,0.807,1.795,1.794v24.943  c0,0.985-0.809,1.794-1.795,1.794H12.974c-0.987,0-1.794-0.809-1.794-1.794V2.819z"/>
<radialGradient gradientTransform="matrix(1.1923 0 0 1 -510.1314 -1982.4023)" id="svg1.SVGID_3_" r="30.6699" cx="456.8843" gradientUnits="userSpaceOnUse" cy="1984.0386">
	<stop offset="0" style="stop-color:#9CD7FF"/>
	<stop offset="1" style="stop-color:#3C89C9"/>
</radialGradient>
<path fill="url(#svg1.SVGID_3_)" d="M11.689,3.228c0-0.987,0.807-1.794,1.794-1.794h40.633c0.986,0,1.795,0.807,1.795,1.794v24.126  c0,0.986-0.809,1.794-1.795,1.794H13.483c-0.987,0-1.794-0.809-1.794-1.794V3.228z"/>
<path fill="#F2F2F2" opacity="0.24" d="M11.689,21.472V3.228c0-0.987,0.807-1.794,1.794-1.794h40.633  c0.986,0,1.795,0.807,1.795,1.794v9.454c0,0.987-10.518,5.21-18.256,6.795C29.917,21.062,11.689,21.472,11.689,21.472z"/>
<linearGradient gradientTransform="matrix(1 0 0 -1 -97.6001 -165.0498)" x1="131.3501" x2="131.3501" gradientUnits="userSpaceOnUse" y1="-212.2612" y2="-170.6274" id="svg1.SVGID_4_">
	<stop offset="0" style="stop-color:#4D4D4D"/>
	<stop offset="0.0667" style="stop-color:#717171"/>
	<stop offset="0.069" style="stop-color:#757575"/>
	<stop offset="0.0831" style="stop-color:#8C8C8C"/>
	<stop offset="0.0996" style="stop-color:#9E9E9E"/>
	<stop offset="0.1196" style="stop-color:#AAAAAA"/>
	<stop offset="0.1466" style="stop-color:#B1B1B1"/>
	<stop offset="0.2121" style="stop-color:#B3B3B3"/>
	<stop offset="1" style="stop-color:#C5C5C5"/>
</linearGradient>
<path fill="url(#svg1.SVGID_4_)" d="M58.385,32.234c-0.689-0.856-2.154-1.559-3.254-1.559H12c-1.1,0-2.552,0.711-3.227,1.579  l-7.546,9.717C0,43.55,0.042,43.785,0,44.55v0.125c0.056,0.393,0.311,1.002,1.248,1.002h64.75c0.75,0.002,1.5-0.252,1.5-1.002V44.55  c0-0.813,0-0.813-1.254-2.559L58.385,32.234z"/>
<path fill="#F2F2F2" d="M58.385,32.234c-0.689-0.856-2.154-1.559-3.254-1.559H12  c-1.1,0-2.552,0.711-3.227,1.579l-7.055,9.085l58.098-7.33L58.385,32.234z" enable-background="new    " opacity="0.23"/>
<path fill="#6E6E6E" d="M59.75,37.205c0.344,0.431,0.172,0.783-0.377,0.783H8.249c-0.55,0-0.742-0.369-0.427-0.819l2.786-3.986  c0.315-0.45,1.023-0.819,1.573-0.819h42.729c0.551,0,1.279,0.354,1.623,0.783L59.75,37.205z"/>
<path fill="#6E6E6E" d="M40.43,41.906c0.072,0.217-0.057,0.395-0.285,0.395H26.727c-0.229,0-0.364-0.18-0.3-0.398l0.822-2.826  c0.064-0.221,0.303-0.399,0.532-0.399h11.167c0.229,0,0.475,0.179,0.547,0.396L40.43,41.906z"/>
</svg>
      </g>
    </g>
  </g>
</svg>
