<?xml version="1.0" encoding="UTF-8"?><svg xmlns="http://www.w3.org/2000/svg" xmlns:xlink="http://www.w3.org/1999/xlink" fill-opacity="1" color-rendering="auto" color-interpolation="auto" text-rendering="auto" stroke="black" stroke-linecap="square" width="36" stroke-miterlimit="10" shape-rendering="auto" stroke-opacity="1" fill="black" stroke-dasharray="none" font-weight="normal" stroke-width="1" height="56" font-family="'Dialog'" font-style="normal" stroke-linejoin="miter" font-size="12px" stroke-dashoffset="0" image-rendering="auto">
  <!--Generated by ySVG 2.5-->
  <defs id="genericDefs"/>
  <g>
    <g fill="white" text-rendering="geometricPrecision" shape-rendering="geometricPrecision" transform="translate(-340,-324)" stroke="white">
      <rect x="340" width="36" height="56" y="324" clip-path="url(#clipPath2)" stroke="none"/>
    </g>
    <g text-rendering="geometricPrecision" shape-rendering="geometricPrecision" transform="matrix(1,0,0,1,0,0.5)">
      <g clip-path="url(#clipPath3)">
        <svg xml:space="preserve" opacity="1" writing-mode="lr-tb" stop-color="rgb(0, 0, 0)" shape-rendering="auto" glyph-orientation-horizontal="0deg" color-profile="auto" lighting-color="rgb(255, 255, 255)" color="rgb(0, 0, 0)" font-weight="400" alignment-baseline="auto" font-style="normal" version="1.1" color-interpolation-filters="linearrgb" text-anchor="start" stroke-linecap="butt" color-interpolation="srgb" font-variant="normal" word-spacing="normal" fill-opacity="1" text-rendering="auto" clip-path="none" text-decoration="none" letter-spacing="normal" viewBox="0 0 36 47" glyph-orientation-vertical="auto" display="inline" font-size-adjust="none" overflow="visible" fill="rgb(0, 0, 0)" font-stretch="normal" stroke-dasharray="none" stroke-miterlimit="4" stop-opacity="1" color-rendering="auto" font-size="12" pointer-events="visiblepainted" mask="none" direction="ltr" baseline-shift="baseline" enable-background="new 0 0 36 47" fill-rule="nonzero" image-rendering="auto" stroke-dashoffset="0" width="36px" marker-end="none" clip="auto" cursor="auto" stroke="none" filter="none" visibility="visible" kerning="auto" stroke-width="1" font-family="&quot;Arial&quot;,&quot;Helvetica&quot;,sans-serif" flood-opacity="1" clip-rule="nonzero" src="none" height="47px" unicode-bidi="normal" stroke-linejoin="miter" stroke-opacity="1" flood-color="rgb(0, 0, 0)" dominant-baseline="auto" marker-start="none" x="0px" marker-mid="none" y="0px">
<defs>
<clipPath clipPathUnits="userSpaceOnUse" id="clipPath1">
              <path d="M0 0 L36 0 L36 56 L0 56 L0 0 Z"/>
            </clipPath>
            <clipPath clipPathUnits="userSpaceOnUse" id="clipPath2">
              <path d="M340 324 L376 324 L376 380 L340 380 L340 324 Z"/>
            </clipPath>
            <clipPath clipPathUnits="userSpaceOnUse" id="clipPath3">
              <path d="M0 -0.5 L36 -0.5 L36 55.5 L0 55.5 L0 -0.5 Z"/>
            </clipPath>
          </defs>
<linearGradient y2="-32.7535" id="svg1.SVGID_1_" x1="18.0005" gradientUnits="userSpaceOnUse" x2="18.0005" y1="47">
	<stop offset="0" style="stop-color:#3C89C9"/>
	<stop offset="1" style="stop-color:#9CD7FF"/>
</linearGradient>
<path fill="url(#svg1.SVGID_1_)" d="M36,45c0,1.1-0.9,2-2,2H2c-1.1,0-2-0.9-2-2V2c0-1.1,0.9-2,2-2h32c1.1,0,2,0.9,2,2V45z"/>
<linearGradient y2="19.5854" id="svg1.SVGID_2_" x1="7.5854" gradientUnits="userSpaceOnUse" x2="28.416" y1="40.416">
	<stop offset="0" style="stop-color:#8D8D8D"/>
	<stop offset="0.5" style="stop-color:#F2F2F2"/>
	<stop offset="1" style="stop-color:#8D8D8D"/>
</linearGradient>
<path fill="url(#svg1.SVGID_2_)" d="M18,15.271C9.865,15.271,3.271,21.865,3.271,30S9.865,44.729,18,44.729S32.729,38.135,32.729,30  S26.135,15.271,18,15.271z M18,42.048c-6.654,0-12.047-5.395-12.047-12.048c0-6.654,5.394-12.047,12.047-12.047  c6.653,0,12.048,5.394,12.048,12.047C30.048,36.653,24.653,42.048,18,42.048z"/>
<path fill="#D9F1FF" opacity="0.24" d="M36,18L0,35V2c0-1.1,0.9-2,2-2h32c1.1,0,2,0.9,2,2V18z"/>
<linearGradient y2="6.0005" id="svg1.SVGID_3_" x1="18.0005" gradientUnits="userSpaceOnUse" x2="18.0005" y1="42">
	<stop offset="0" style="stop-color:#515151"/>
	<stop offset="1" style="stop-color:#B8B8B8"/>
</linearGradient>
<path fill="url(#svg1.SVGID_3_)" d="M36,40.14c0,1.023-0.837,1.86-1.86,1.86H1.86C0.837,42,0,41.163,0,40.14V7.86  C0,6.837,0.837,6,1.86,6H34.14C35.163,6,36,6.837,36,7.86V40.14z" display="none"/>
<path fill="#515151" d="M18,17.953c-6.654,0-12.047,5.394-12.047,12.047c0,6.653,5.394,12.048,12.047,12.048  c6.653,0,12.048-5.395,12.048-12.048C30.048,23.346,24.653,17.953,18,17.953z M18,40.242c-5.657,0-10.242-4.586-10.242-10.242  c0-5.657,4.585-10.242,10.242-10.242c5.656,0,10.242,4.585,10.242,10.242C28.242,35.656,23.656,40.242,18,40.242z"/>
<path fill="#B3B3B3" d="M18,19.758c-5.657,0-10.242,4.585-10.242,10.242c0,5.656,4.585,10.242,10.242,10.242  c5.656,0,10.242-4.586,10.242-10.242C28.242,24.343,23.656,19.758,18,19.758z M18,39.521c-5.259,0-9.522-4.264-9.522-9.521  c0-5.259,4.263-9.522,9.522-9.522c5.258,0,9.521,4.263,9.521,9.522C27.521,35.258,23.258,39.521,18,39.521z"/>
<linearGradient y2="37.056" id="svg1.SVGID_4_" x1="10.9429" gradientUnits="userSpaceOnUse" x2="25.056" y1="22.9429">
	<stop offset="0" style="stop-color:#666666"/>
	<stop offset="1" style="stop-color:#A2A2A2"/>
	<stop offset="1" style="stop-color:#515151"/>
</linearGradient>
<path fill="url(#svg1.SVGID_4_)" d="M18,20.02c-5.512,0-9.98,4.468-9.98,9.98c0,5.511,4.468,9.979,9.98,9.979  c5.511,0,9.979-4.469,9.979-9.979C27.979,24.488,23.511,20.02,18,20.02z M18,33.32c-1.833,0-3.32-1.485-3.32-3.32  c0-1.834,1.487-3.32,3.32-3.32c1.835,0,3.321,1.486,3.321,3.32C21.32,31.835,19.835,33.32,18,33.32z"/>
<radialGradient id="svg1.SVGID_5_" r="5.019" cx="16.9878" gradientUnits="userSpaceOnUse" cy="27.9512">
	<stop offset="0.2448" style="stop-color:#5D5D5D"/>
	<stop offset="1" style="stop-color:#A2A2A2"/>
</radialGradient>
<path fill="url(#svg1.SVGID_5_)" d="M18,26.664c-1.842,0-3.336,1.493-3.336,3.336s1.494,3.336,3.336,3.336  c1.843,0,3.336-1.493,3.336-3.336S19.843,26.664,18,26.664z M18,32.467c-1.362,0-2.467-1.104-2.467-2.467s1.104-2.468,2.467-2.468  c1.363,0,2.467,1.105,2.467,2.468S19.362,32.467,18,32.467z"/>
<radialGradient id="svg1.SVGID_6_" r="3.7664" cx="18.0894" gradientUnits="userSpaceOnUse" cy="28.8408">
	<stop offset="0" style="stop-color:#C5C5C5"/>
	<stop offset="0.8424" style="stop-color:#515151"/>
</radialGradient>
<circle fill="url(#svg1.SVGID_6_)" r="2.531" cx="18" cy="30"/>
<circle fill="#717171" r="0.832" cx="8.758" cy="20.758"/>
<circle fill="#717171" r="0.832" cx="27.242" cy="20.758"/>
<circle fill="#717171" r="0.832" cx="27.242" cy="39.242"/>
<circle fill="#717171" r="0.832" cx="8.758" cy="39.242"/>
<path fill="#515151" d="M18,4.294c-2.599,0-4.706,2.107-4.706,4.706s2.107,4.707,4.706,4.707c2.599,0,4.706-2.107,4.706-4.707  S20.599,4.294,18,4.294z"/>
<path fill="#999999" d="M18,6.601c-1.325,0-2.399,1.074-2.399,2.399c0,1.324,1.074,2.398,2.399,2.398  c1.324,0,2.398-1.074,2.398-2.398C20.398,7.675,19.324,6.601,18,6.601z M18,9.798c-0.441,0-0.798-0.357-0.798-0.798  S17.559,8.202,18,8.202S18.798,8.559,18.798,9S18.441,9.798,18,9.798z"/>
<radialGradient id="svg1.SVGID_7_" r="2.5698" cx="18.0605" gradientUnits="userSpaceOnUse" cy="8.209">
	<stop offset="0" style="stop-color:#C5C5C5"/>
	<stop offset="0.8424" style="stop-color:#515151"/>
</radialGradient>
<circle fill="url(#svg1.SVGID_7_)" r="1.727" cx="18" cy="9"/>
<circle fill="#2470A3" r="0.832" cx="2.758" cy="2.758"/>
<circle fill="#2470A3" r="0.832" cx="33.242" cy="2.758"/>
<circle fill="#2470A3" r="0.832" cx="33.242" cy="44.242"/>
<circle fill="#2470A3" r="0.832" cx="2.758" cy="44.242"/>
</svg>
      </g>
    </g>
  </g>
</svg>
